# xmcd
# Track frame offsets:
# 150
# 17187
# 32857
# 49509
# 63780
# 74581
# 91701
# 106149
# 123823
# 138020
# 152108
# 164327
# 181921
# 198054
# 216893
# 229949
#
# Disc length: 3321 seconds
# Revision: 0
# Processed by: cddbd v1.4PL0 Copyright (c) Steve Scherf et al.
# Submitted via: VisiTrax 2.9.5.180 - For more info visit www.synapsa.com
#
DISCID=cc0cf710
DTITLE=Anni Filt - Kissing an angel
DYEAR=2003
DGENRE=
TTITLE0=Here we are
TTITLE1=Are there anymore like you
TTITLE2=Kissing an angel
TTITLE3=Moving on
TTITLE4=Those little wings
TTITLE5=Paper blank
TTITLE6=Someone elses trouble now
TTITLE7=Cheating song
TTITLE8=Never ending love
TTITLE9=Words
TTITLE10=That's all right mama
TTITLE11=Until a new love comes around
TTITLE12=Can't go on pretending
TTITLE13=Out on the road again
TTITLE14=String of pearls
TTITLE15=Leaving on a jet plane
EXTD=
EXTT0=
EXTT1=
EXTT2=
EXTT3=
EXTT4=
EXTT5=
EXTT6=
EXTT7=
EXTT8=
EXTT9=
EXTT10=
EXTT11=
EXTT12=
EXTT13=
EXTT14=
EXTT15=
PLAYORDER=
